<svg width="31" height="31" viewBox="0 0 31 31" fill="none" xmlns="http://www.w3.org/2000/svg">
<path d="M13.5 20.7474V28.7396C13.5 28.9517 13.4678 29.1617 13.405 29.3576C13.3421 29.5535 13.2501 29.7315 13.134 29.8815C13.0179 30.0314 12.8801 30.1503 12.7284 30.2314C12.5767 30.3126 12.4142 30.3543 12.25 30.3542H1.75C1.58583 30.3543 1.42327 30.3126 1.27159 30.2314C1.11991 30.1503 0.98209 30.0314 0.866007 29.8815C0.749924 29.7315 0.657851 29.5535 0.59505 29.3576C0.532249 29.1617 0.499951 28.9517 0.5 28.7396V2.26046C0.499951 2.04841 0.532249 1.83843 0.59505 1.64251C0.657851 1.44659 0.749924 1.26857 0.866007 1.11863C0.98209 0.968692 1.11991 0.849765 1.27159 0.768647C1.42327 0.68753 1.58583 0.64581 1.75 0.645874H12.25C12.4142 0.64581 12.5767 0.68753 12.7284 0.768647C12.8801 0.849765 13.0179 0.968692 13.134 1.11863C13.2501 1.26857 13.3421 1.44659 13.405 1.64251C13.4678 1.83843 13.5 2.04841 13.5 2.26046V10.3334" fill="#36C4A2"/>
<path d="M9.5 3.22927H4.5L4 0.645935H10L9.5 3.22927Z" fill="white"/>
<path d="M17.5 10.3334V2.26052C17.5 2.04847 17.5322 1.83849 17.5951 1.64257C17.6579 1.44665 17.7499 1.26863 17.866 1.11869C17.9821 0.968753 18.1199 0.849826 18.2716 0.768708C18.4233 0.687591 18.5858 0.645871 18.75 0.645935H29.25C29.4142 0.645871 29.5767 0.687591 29.7284 0.768708C29.8801 0.849826 30.0179 0.968753 30.134 1.11869C30.2501 1.26863 30.3421 1.44665 30.4049 1.64257C30.4678 1.83849 30.5 2.04847 30.5 2.26052V28.7397C30.5 28.9517 30.4678 29.1617 30.4049 29.3576C30.3421 29.5536 30.2501 29.7316 30.134 29.8815C30.0179 30.0315 29.8801 30.1504 29.7284 30.2315C29.5767 30.3126 29.4142 30.3543 29.25 30.3543H18.75C18.5858 30.3543 18.4233 30.3126 18.2716 30.2315C18.1199 30.1504 17.9821 30.0315 17.866 29.8815C17.7499 29.7316 17.6579 29.5536 17.5951 29.3576C17.5322 29.1617 17.5 28.9517 17.5 28.7397V20.7475" fill="#36C4A2"/>
<path d="M26.5 3.22933H21.5L21 0.645996H27L26.5 3.22933Z" fill="white"/>
<path d="M19.5 8.39587L22.5 11.625L19.5 14.8542V12.9167H10.5625V10.3334H19.5V8.39587Z" fill="white"/>
<path d="M11.5 22.685L8.5 19.4558L11.5 16.2266V18.1641H20.5V20.7475H11.5V22.685Z" fill="white"/>
<path d="M8.5 27.7708H5.5C5.36739 27.7708 5.24021 27.8389 5.14645 27.96C5.05268 28.0811 5 28.2454 5 28.4166C5 28.5879 5.05268 28.7522 5.14645 28.8733C5.24021 28.9944 5.36739 29.0625 5.5 29.0625H8.5C8.63261 29.0625 8.75979 28.9944 8.85355 28.8733C8.94732 28.7522 9 28.5879 9 28.4166C9 28.2454 8.94732 28.0811 8.85355 27.96C8.75979 27.8389 8.63261 27.7708 8.5 27.7708Z" fill="white"/>
<path d="M29.25 0H18.75C18.286 0.000662407 17.8412 0.239026 17.5131 0.662793C17.1851 1.08656 17.0005 1.66112 17 2.26042V9.6875H14V2.26042C13.9995 1.66112 13.8149 1.08656 13.4869 0.662793C13.1588 0.239026 12.714 0.000662407 12.25 0H1.75C1.28603 0.000662407 0.841207 0.239026 0.51313 0.662793C0.185052 1.08656 0.000512831 1.66112 0 2.26042V28.7396C0.000512831 29.3389 0.185052 29.9134 0.51313 30.3372C0.841207 30.761 1.28603 30.9993 1.75 31H12.25C12.714 30.9993 13.1588 30.761 13.4869 30.3372C13.8149 29.9134 13.9995 29.3389 14 28.7396V21.3932H17V28.7396C17.0005 29.3389 17.1851 29.9134 17.5131 30.3372C17.8412 30.761 18.286 30.9993 18.75 31H29.25C29.714 30.9993 30.1588 30.761 30.4869 30.3372C30.8149 29.9134 30.9995 29.3389 31 28.7396V2.26042C30.9995 1.66112 30.8149 1.08656 30.4869 0.662793C30.1588 0.239026 29.714 0.000662407 29.25 0ZM26.3594 1.29167L26.1094 2.58333H21.8906L21.6406 1.29167H26.3594ZM19.5 10.9792C19.6326 10.9792 19.7598 10.9111 19.8536 10.79C19.9473 10.6689 20 10.5046 20 10.3333V9.77469L21.7188 11.625L20 13.4753V12.9167C20 12.7454 19.9473 12.5811 19.8536 12.46C19.7598 12.3389 19.6326 12.2708 19.5 12.2708H15.2812H11.0625V10.9792H19.5ZM17 13.5625V17.5182H14V13.5625H17ZM9.35938 1.29167L9.10938 2.58333H4.89062L4.64062 1.29167H9.35938ZM13 28.7396C12.9998 28.9964 12.9208 29.2427 12.7801 29.4244C12.6395 29.606 12.4489 29.7081 12.25 29.7083H1.75C1.55114 29.7081 1.36047 29.606 1.21985 29.4244C1.07924 29.2427 1.00017 28.9964 1 28.7396V2.26042C1.00017 2.00355 1.07924 1.75727 1.21985 1.57564C1.36047 1.39401 1.55114 1.29188 1.75 1.29167H3.60938L4.015 3.38578C4.04204 3.5255 4.10446 3.64954 4.19233 3.73818C4.28021 3.82682 4.3885 3.87498 4.5 3.875H9.5C9.6115 3.87498 9.71979 3.82682 9.80767 3.73818C9.89554 3.64954 9.95796 3.5255 9.985 3.38578L10.3906 1.29167H12.25C12.4489 1.29188 12.6395 1.39401 12.7801 1.57564C12.9208 1.75727 12.9998 2.00355 13 2.26042V9.6875H10.5625C10.4299 9.6875 10.3027 9.75554 10.2089 9.87666C10.1152 9.99778 10.0625 10.162 10.0625 10.3333V12.9167C10.0625 13.088 10.1152 13.2522 10.2089 13.3733C10.3027 13.4945 10.4299 13.5625 10.5625 13.5625H13V17.5182H12V16.2266C11.9999 16.1039 11.9727 15.9838 11.9217 15.8803C11.8707 15.7768 11.798 15.6942 11.712 15.6421C11.626 15.5901 11.5303 15.5707 11.4361 15.5863C11.3419 15.6018 11.2531 15.6517 11.18 15.7301L8.18 18.9592C8.12366 19.0199 8.07833 19.0958 8.04722 19.1816C8.01611 19.2674 7.99999 19.361 7.99999 19.4557C7.99999 19.5505 8.01611 19.644 8.04722 19.7298C8.07833 19.8156 8.12366 19.8916 8.18 19.9522L11.18 23.1814C11.2531 23.2597 11.3419 23.3096 11.4361 23.3252C11.5303 23.3408 11.626 23.3214 11.712 23.2693C11.798 23.2173 11.8707 23.1346 11.9217 23.0312C11.9727 22.9277 11.9999 22.8076 12 22.6849V21.3932H13V28.7396ZM11.5 20.1016C11.3674 20.1016 11.2402 20.1696 11.1464 20.2907C11.0527 20.4118 11 20.5761 11 20.7474V21.306L9.28125 19.4557L11 17.6054V18.1641C11 18.3353 11.0527 18.4996 11.1464 18.6207C11.2402 18.7419 11.3674 18.8099 11.5 18.8099H20V20.1016H11.5ZM30 28.7396C29.9998 28.9964 29.9208 29.2427 29.7801 29.4244C29.6395 29.606 29.4489 29.7081 29.25 29.7083H18.75C18.5511 29.7081 18.3605 29.606 18.2199 29.4244C18.0792 29.2427 18.0002 28.9964 18 28.7396V21.3932H20.5C20.6326 21.3932 20.7598 21.3252 20.8536 21.2041C20.9473 21.083 21 20.9187 21 20.7474V18.1641C21 17.9928 20.9473 17.8285 20.8536 17.7074C20.7598 17.5863 20.6326 17.5182 20.5 17.5182H18V13.5625H19V14.8542C19 14.9769 19.027 15.0972 19.078 15.2008C19.129 15.3044 19.2017 15.3871 19.2878 15.4392C19.3738 15.4913 19.4696 15.5106 19.5639 15.495C19.6581 15.4793 19.747 15.4292 19.82 15.3506L22.82 12.1215C22.8763 12.0608 22.9217 11.9849 22.9528 11.8991C22.9839 11.8133 23 11.7197 23 11.625C23 11.5303 22.9839 11.4367 22.9528 11.3509C22.9217 11.2651 22.8763 11.1892 22.82 11.1285L19.82 7.89935C19.7469 7.82099 19.6581 7.77111 19.5639 7.75553C19.4697 7.73996 19.374 7.75934 19.288 7.81141C19.202 7.86348 19.1293 7.94608 19.0783 8.04957C19.0273 8.15306 19.0001 8.27316 19 8.39583V9.6875H18V2.26042C18.0002 2.00355 18.0792 1.75727 18.2199 1.57564C18.3605 1.39401 18.5511 1.29188 18.75 1.29167H20.6094L21.015 3.38578C21.042 3.5255 21.1045 3.64954 21.1923 3.73818C21.2802 3.82682 21.3885 3.87498 21.5 3.875H26.5C26.6115 3.87498 26.7198 3.82682 26.8077 3.73818C26.8955 3.64954 26.958 3.5255 26.985 3.38578L27.3906 1.29167H29.25C29.4489 1.29188 29.6395 1.39401 29.7801 1.57564C29.9208 1.75727 29.9998 2.00355 30 2.26042V28.7396Z" fill="#36C4A2"/>
<path d="M25.5 27.7708H22.5C22.3674 27.7708 22.2402 27.8389 22.1464 27.96C22.0527 28.0811 22 28.2454 22 28.4166C22 28.5879 22.0527 28.7522 22.1464 28.8733C22.2402 28.9944 22.3674 29.0625 22.5 29.0625H25.5C25.6326 29.0625 25.7598 28.9944 25.8536 28.8733C25.9473 28.7522 26 28.5879 26 28.4166C26 28.2454 25.9473 28.0811 25.8536 27.96C25.7598 27.8389 25.6326 27.7708 25.5 27.7708Z" fill="white"/>
</svg>
