<svg width="24" height="24" viewBox="0 0 24 24" fill="none" xmlns="http://www.w3.org/2000/svg">
<path d="M18.2297 12.4826C17.9906 12.2482 17.9859 11.8592 18.225 11.6201L20.4375 9.37481H9.89062C9.55313 9.37481 9.28125 9.10293 9.28125 8.76543C9.28125 8.42793 9.55313 8.15606 9.89062 8.15606H20.4328L18.2203 5.91075C17.9859 5.67168 17.9859 5.28731 18.225 5.04825C18.4641 4.81387 18.8484 4.81387 19.0875 5.05293L22.3219 8.33418C22.3734 8.39043 22.4203 8.45137 22.4484 8.52637C22.4812 8.60137 22.4953 8.68106 22.4953 8.76075C22.4953 8.92012 22.4344 9.07012 22.3219 9.18731L19.0875 12.4686C18.8531 12.7123 18.4688 12.717 18.2297 12.4826Z" fill="#FD9101"/>
<path d="M5.77032 18.9514C6.00939 18.717 6.01407 18.3279 5.77501 18.0889L3.5672 15.8436H14.1094C14.4469 15.8436 14.7188 15.5717 14.7188 15.2342C14.7188 14.8967 14.4469 14.6248 14.1094 14.6248H3.5672L5.7797 12.3795C6.01407 12.1404 6.01407 11.7561 5.77501 11.517C5.53595 11.2826 5.15157 11.2826 4.91251 11.5217L1.67814 14.8029C1.62657 14.8592 1.5797 14.9201 1.55157 14.9951C1.51876 15.0701 1.5047 15.1498 1.5047 15.2295C1.5047 15.3889 1.56564 15.5389 1.67814 15.6561L4.91251 18.9373C5.14689 19.1811 5.53126 19.1857 5.77032 18.9514Z" fill="#FD9101"/>
</svg>
