<svg width="22" height="22" viewBox="0 0 22 22" fill="none" xmlns="http://www.w3.org/2000/svg">
<path d="M14.756 0.655961H13.7307C13.6663 0.655961 13.658 0.655961 13.5105 0.511629C13.3148 0.320289 12.9873 0 12.3894 0C11.7914 0 11.4641 0.320289 11.2684 0.511629C11.1209 0.655961 11.1126 0.655961 11.0482 0.655961C10.9839 0.655961 10.9756 0.655961 10.8281 0.511672C10.6325 0.320289 10.3051 0 9.70715 0C9.10924 0 8.78182 0.320289 8.58618 0.511672C8.43867 0.655961 8.43042 0.655961 8.36605 0.655961H7.36243L8.33812 2.78532H13.73L14.756 0.655961Z" fill="#16BE81"/>
<path d="M14.11 16.8492L16.4262 12.9853C16.6837 12.5557 17.0863 12.2365 17.5492 12.0756L17.6782 9.65367C16.7479 8.34613 15.4305 7.45285 13.8447 6.65466H8.18446C6.58641 7.45152 5.25829 8.34613 4.32239 9.66364L4.45091 12.0756C4.91381 12.2365 5.31638 12.5557 5.5739 12.9853L7.89008 16.8492C8.43879 17.707 8.68032 18.6975 8.60113 19.6882C9.36778 19.9458 10.1769 20.0802 10.9905 20.0802C11.8112 20.0802 12.6264 19.9436 13.3985 19.6818C13.3209 18.6932 13.5625 17.7052 14.11 16.8492ZM11.5167 14.5521V15.2601H10.6173V14.5839C9.97948 14.5457 9.36073 14.3734 8.97805 14.1375L9.46278 13.0403C9.88379 13.2891 10.4451 13.4485 10.9362 13.4485C11.3636 13.4485 11.5166 13.3592 11.5166 13.2062C11.5166 12.6449 9.04818 13.0977 9.04818 11.4329C9.04818 10.7122 9.57119 10.1062 10.6173 9.95948V9.26424H11.5166V9.94671C11.9887 9.99136 12.4479 10.1126 12.8115 10.3167L12.3586 11.4074C11.9185 11.1841 11.5039 11.0757 11.1148 11.0757C10.6747 11.0757 10.5343 11.2033 10.5343 11.3563C10.5343 11.8922 13.0028 11.4456 13.0028 13.0913C13.0029 13.7803 12.5054 14.3798 11.5167 14.5521Z" fill="#16BE81"/>
<path d="M8.82788 4.07434H13.2117V5.36555H8.82788V4.07434Z" fill="#16BE81"/>
<path d="M6.8359 17.5138L6.82412 17.4948L4.50506 13.626C4.25502 13.2088 3.71078 13.0791 3.29944 13.3386C2.90168 13.5895 2.77668 14.1119 3.01774 14.5157L5.21142 18.1906L4.10197 18.8469L1.92268 15.1633C1.61992 14.6859 1.52543 14.1187 1.65679 13.5646C1.79085 12.999 2.15823 12.5029 2.66471 12.2035C2.83607 12.1022 3.01529 12.0272 3.19765 11.9761L2.96433 7.59715C2.92265 6.81478 2.27614 6.20178 1.49265 6.20178C0.680281 6.20178 0.0210977 6.85916 0.0189063 7.67157L0 14.672L2.9315 19.7169L2.07247 22H6.38365L7.15945 20.5019C7.52628 19.4922 7.40906 18.4052 6.8359 17.5138Z" fill="#16BE81"/>
<path d="M22 14.672L21.981 7.67157C21.9789 6.8592 21.3197 6.20178 20.5073 6.20178C19.7239 6.20178 19.0773 6.81477 19.0356 7.59715L18.8023 11.9761C18.9847 12.0271 19.1639 12.1022 19.3352 12.2035C19.8417 12.5029 20.2091 12.999 20.3432 13.5646C20.4745 14.1187 20.38 14.6859 20.0773 15.1633L17.898 18.8469L16.7886 18.1905L18.9823 14.5157C19.2233 14.1119 19.0983 13.5895 18.7006 13.3386C18.2893 13.0791 17.745 13.2089 17.4949 13.626L15.1759 17.4947L15.1641 17.5138C14.5909 18.4052 14.4737 19.4922 14.8405 20.5018L15.6163 22H19.9275L19.0685 19.7168L22 14.672Z" fill="#16BE81"/>
</svg>
