<svg width="22" height="22" viewBox="0 0 22 22" fill="none" xmlns="http://www.w3.org/2000/svg">
<path d="M11.6446 11.6446V0C5.40722 0.327166 0.327166 5.40718 0 11.6446H11.6446ZM9.06646 9.711H7.77739V8.42193H9.06646V9.711ZM5.19925 5.84378H6.48832V7.13285H5.19925V5.84378ZM8.42193 5.5769L9.33334 6.48832L5.84379 9.97788L4.93237 9.06646L8.42193 5.5769Z" fill="#10194E"/>
<path d="M11.6444 12.9336H3.93457C4.24867 17.0413 7.53679 20.3294 11.6445 20.6435V12.9336H11.6444Z" fill="#10194E"/>
<path d="M12.9336 2.57812C12.9336 2.71657 12.9336 22.1523 12.9336 22.0001C17.9641 21.666 22.0001 17.3385 22.0001 12.2248C22.0001 7.11063 17.9653 2.91109 12.9336 2.57812ZM16.8008 11.6446C17.867 11.6446 18.7344 12.512 18.7344 13.5782C18.7344 14.4174 18.194 15.1261 17.4453 15.3931V16.8009H16.1563V15.3931C15.4077 15.1261 14.8672 14.4174 14.8672 13.5782H16.1563C16.1563 13.9338 16.4452 14.2227 16.8008 14.2227C17.1564 14.2227 17.4453 13.9338 17.4453 13.5782C17.4453 13.2226 17.1564 12.9337 16.8008 12.9337C15.7346 12.9337 14.8672 12.0663 14.8672 11.0001C14.8672 10.1609 15.4077 9.45214 16.1563 9.18517V7.77738H17.4453V9.18517C18.194 9.45214 18.7344 10.1609 18.7344 11.0001H17.4453C17.4453 10.6444 17.1564 10.3555 16.8008 10.3555C16.4452 10.3555 16.1563 10.6444 16.1563 11.0001C16.1563 11.3557 16.4452 11.6446 16.8008 11.6446Z" fill="#10194E"/>
</svg>
