<svg width="24" height="24" viewBox="0 0 24 24" fill="none" xmlns="http://www.w3.org/2000/svg">
<path d="M18.9375 7.5H5.0625C3.51094 7.5 2.25 8.76094 2.25 10.3125V18.1875C2.25 19.7391 3.51094 21 5.0625 21H18.9375C20.4891 21 21.75 19.7391 21.75 18.1875V10.3125C21.75 8.76094 20.4891 7.5 18.9375 7.5Z" fill="#FF2E63"/>
<path d="M16.0734 3.04691L5.0625 5.19847C4.21875 5.38597 3 6.23441 3 7.26566C3 7.26566 3.70312 6.37504 5.29688 6.37504H18.75V5.4141C18.75 4.82347 18.5156 4.06879 18.0984 3.6516C17.5688 3.12191 16.8094 2.89222 16.0734 3.04691Z" fill="#FF2E63"/>
</svg>
