<svg width="20" height="20" viewBox="0 0 20 20" fill="none" xmlns="http://www.w3.org/2000/svg">
<path d="M0.546875 0.0778732C0.300781 0.159904 0.148438 0.316154 0.0585938 0.577873C0.0078125 0.734123 0 1.70287 0 9.17553C0 14.9333 0.0117188 17.6443 0.0429688 17.7458C0.09375 17.9333 0.289062 18.156 0.480469 18.2419C0.5625 18.281 2.55078 18.6951 4.90234 19.1638C9.03125 19.988 9.17969 20.0154 9.36328 19.9685C9.59375 19.906 9.79297 19.7497 9.89844 19.5466C9.96875 19.4177 9.98438 19.3083 9.99219 18.8591L10.0078 18.3201H12.1719C14.5352 18.3201 14.4961 18.324 14.7422 18.0935C14.8047 18.0349 14.8867 17.9177 14.9258 17.8318C14.9922 17.6833 15 17.5232 15 14.9997C15 12.4958 14.9922 12.3122 14.9258 12.1677C14.6445 11.5505 13.7734 11.5154 13.4375 12.1091L13.3398 12.2849L13.3281 14.4841L13.3164 16.6794H11.6602H10L9.99219 9.89037C9.98047 3.11303 9.98047 3.10522 9.89844 2.95287C9.74219 2.65209 9.66016 2.61694 8.10547 2.14428C7.3125 1.906 6.65234 1.70287 6.64453 1.69506C6.63672 1.68725 8.13281 1.67944 9.97266 1.67944H13.3164L13.3281 3.85522C13.3398 6.02319 13.3398 6.0349 13.4258 6.19897C13.7539 6.80444 14.5977 6.80834 14.9023 6.19897L15 5.99975V3.35912C15 1.48412 14.9883 0.675529 14.957 0.581779C14.8828 0.363029 14.7266 0.191154 14.5156 0.0934982L14.3164 -0.00025177H7.53906C0.992188 0.00365448 0.753906 0.00365448 0.546875 0.0778732Z" fill="#FF2E63"/>
<path d="M16.5039 5.85512C16.1094 5.95278 15.8476 6.27309 15.8476 6.65981C15.8476 6.98403 15.9336 7.11684 16.5469 7.73793L17.1211 8.31606L14.7031 8.32778L12.2851 8.33949L12.1094 8.43715C11.6133 8.7184 11.5312 9.39809 11.9531 9.7809C12.0351 9.85512 12.1719 9.93324 12.2539 9.95668C12.3515 9.98403 13.2265 9.99965 14.7851 9.99965H17.168L16.5742 10.5934C16.25 10.9215 15.9531 11.2536 15.918 11.3278C15.7773 11.6012 15.8515 12.0153 16.0781 12.2418C16.3398 12.5036 16.6836 12.5621 17.0117 12.4059C17.2851 12.277 19.8008 9.75356 19.918 9.49184C20.0273 9.25356 20.0195 9.04262 19.9023 8.80434C19.7656 8.5309 17.1914 5.9684 16.9922 5.9059C16.7734 5.83949 16.6289 5.82387 16.5039 5.85512Z" fill="#FF2E63"/>
</svg>
