<svg width="273" height="124" viewBox="0 0 273 124" fill="none" xmlns="http://www.w3.org/2000/svg">
<ellipse cx="62.04" cy="62" rx="62.04" ry="62" fill="#FF2E63"/>
<path d="M69.6866 78H60.7657V61.4609C60.7657 57.2507 59.2175 55.1455 56.1211 55.1455C54.6485 55.1455 53.4496 55.778 52.5245 57.043C51.5993 58.3079 51.1368 59.8844 51.1368 61.7725V78H42.1875V61.291C42.1875 57.194 40.6677 55.1455 37.628 55.1455C36.0987 55.1455 34.8715 55.7497 33.9463 56.958C33.0401 58.1663 32.587 59.8089 32.587 61.8857V78H23.6377V49H32.587V53.5312H32.7002C33.6254 51.9831 34.9187 50.7275 36.5801 49.7646C38.2605 48.7829 40.0918 48.292 42.0743 48.292C46.1713 48.292 48.975 50.0951 50.4854 53.7012C52.6944 50.0951 55.9418 48.292 60.2276 48.292C66.5336 48.292 69.6866 52.1813 69.6866 59.96V78ZM104.379 49L92.5977 80.3223C89.7657 87.8555 85.4987 91.6221 79.7969 91.6221C77.6257 91.6221 75.8415 91.3766 74.4444 90.8857V83.749C75.6338 84.4476 76.9271 84.7969 78.3243 84.7969C80.6277 84.7969 82.2325 83.7113 83.1387 81.54L84.668 77.9434L72.8868 49H82.7989L88.2081 66.6436C88.5479 67.7386 88.8122 69.0319 89.001 70.5234H89.1143C89.2842 69.4284 89.5958 68.154 90.0489 66.7002L95.5147 49H104.379Z" fill="white"/>
<path d="M136.123 81V38.9883H151.416C156.103 38.9883 159.707 39.8477 162.226 41.5664C164.746 43.2852 166.006 45.707 166.006 48.832C166.006 51.0977 165.234 53.0801 163.691 54.7793C162.168 56.4785 160.215 57.6602 157.832 58.3242V58.4414C160.82 58.8125 163.203 59.916 164.98 61.752C166.777 63.5879 167.676 65.8242 167.676 68.4609C167.676 72.3086 166.299 75.3652 163.545 77.6309C160.791 79.877 157.031 81 152.266 81H136.123ZM145.586 45.9609V55.9219H149.746C151.699 55.9219 153.232 55.4531 154.346 54.5156C155.478 53.5586 156.045 52.25 156.045 50.5898C156.045 47.5039 153.74 45.9609 149.131 45.9609H145.586ZM145.586 62.9531V74.0273H150.713C152.9 74.0273 154.609 73.5195 155.84 72.5039C157.09 71.4883 157.715 70.1016 157.715 68.3438C157.715 66.6641 157.099 65.3457 155.869 64.3887C154.658 63.4316 152.959 62.9531 150.771 62.9531H145.586ZM198.672 81H189.912V76.6934H189.795C187.783 80.0527 184.805 81.7324 180.859 81.7324C177.949 81.7324 175.654 80.9121 173.974 79.2715C172.314 77.6113 171.484 75.4043 171.484 72.6504C171.484 66.8301 174.932 63.4707 181.826 62.5723L189.971 61.4883C189.971 58.207 188.193 56.5664 184.639 56.5664C181.064 56.5664 177.666 57.6309 174.443 59.7598V52.7871C175.732 52.123 177.49 51.5371 179.717 51.0293C181.963 50.5215 184.004 50.2676 185.84 50.2676C194.394 50.2676 198.672 54.5352 198.672 63.0703V81ZM189.971 68.8125V66.791L184.521 67.4941C181.514 67.8848 180.01 69.2422 180.01 71.5664C180.01 72.6211 180.371 73.4902 181.094 74.1738C181.836 74.8379 182.832 75.1699 184.082 75.1699C185.82 75.1699 187.236 74.5742 188.33 73.3828C189.424 72.1719 189.971 70.6484 189.971 68.8125ZM234.971 81H225.742V64.3301C225.742 59.6816 224.082 57.3574 220.762 57.3574C219.16 57.3574 217.842 57.9727 216.807 59.2031C215.771 60.4336 215.254 61.9961 215.254 63.8906V81H205.996V51H215.254V55.7461H215.371C217.578 52.0938 220.791 50.2676 225.01 50.2676C231.65 50.2676 234.971 54.3887 234.971 62.6309V81ZM272.383 81H261.279L251.699 66.1172H251.582V81H242.324V36.5859H251.582V64.8574H251.699L260.635 51H271.621L260.869 65.0918L272.383 81Z" fill="white"/>
</svg>
