<svg width="18" height="20" viewBox="0 0 18 20" fill="none" xmlns="http://www.w3.org/2000/svg">
<path d="M8.60937 0.078125C8.24218 0.273438 8.14062 0.515625 8.14062 1.21484V1.71484L7.99609 1.73828C5.80078 2.10938 3.96875 3.77344 3.35547 5.95312C3.1875 6.53906 3.17187 6.73047 3.14062 8.69141C3.11328 10.5547 3.10937 10.6172 3.01172 11.0156C2.71875 12.2227 2.14062 13.2031 1.25 14C0.765622 14.4375 0.57031 14.9336 0.679685 15.4805C0.773435 15.9648 1.05468 16.3242 1.5 16.5391L1.7539 16.6602H9H16.2461L16.5 16.5391C17.25 16.1797 17.5547 15.3242 17.2031 14.5781C17.1172 14.3906 16.9805 14.2266 16.5898 13.8398C15.7227 12.9805 15.2695 12.1758 14.9883 11.0156C14.8906 10.6172 14.8867 10.5547 14.8594 8.69141C14.8281 6.73047 14.8125 6.53906 14.6445 5.95312C14.2187 4.44141 13.1875 3.13672 11.8359 2.38672C11.2891 2.08594 10.6055 1.84375 10.0078 1.74219L9.85937 1.71484V1.22266C9.85937 0.953125 9.83984 0.664062 9.8164 0.582031C9.75781 0.386719 9.57421 0.171875 9.38671 0.078125C9.1875 -0.0234375 8.80078 -0.0234375 8.60937 0.078125Z" fill="#FF2E63"/>
<path d="M5.91406 17.5156C5.91406 17.582 6.09766 18.1055 6.17969 18.2617C6.48047 18.8594 6.99219 19.3789 7.5625 19.6641C8.0625 19.9141 8.42969 20 9 20C9.57031 20 9.9375 19.9141 10.4375 19.6641C11.0078 19.3789 11.5195 18.8594 11.8203 18.2617C11.9023 18.1055 12.0859 17.582 12.0859 17.5156C12.0859 17.5078 10.6992 17.5 9 17.5C7.30469 17.5 5.91406 17.5078 5.91406 17.5156Z" fill="#FF2E63"/>
</svg>
