<svg width="32" height="28" viewBox="0 0 32 28" fill="none" xmlns="http://www.w3.org/2000/svg">
<path d="M29.3333 4.66669H22.6667V3.33332C22.6667 1.86263 21.4708 0.666626 20 0.666626H12C10.5293 0.666626 9.33331 1.86256 9.33331 3.33332V4.66663H2.66669C1.19594 4.66669 0 5.86263 0 7.33332V11.3333C0 12.8041 1.19594 14 2.66669 14H13.3334V13.3333C13.3334 12.9648 13.6316 12.6666 14.0001 12.6666H18.0001C18.3686 12.6666 18.6667 12.9648 18.6667 13.3333V14H29.3334C30.8041 14 32 12.8041 32 11.3333V7.33332C32 5.86263 30.8041 4.66669 29.3333 4.66669ZM20 4.66669H12V3.33332H20V4.66669Z" fill="#D7DAE3"/>
<path d="M31.6302 14.7193C31.403 14.6067 31.1315 14.6328 30.9309 14.7851C30.457 15.1438 29.9049 15.3333 29.3333 15.3333H18.6667V17.3333C18.6667 17.7018 18.3685 18 18 18H14C13.6315 18 13.3333 17.7018 13.3333 17.3333V15.3333H2.66669C2.09506 15.3333 1.543 15.1438 1.069 14.7851C0.867813 14.6315 0.597 14.6054 0.36975 14.7193C0.14325 14.832 0 15.0631 0 15.3164V24.6667C0 26.1373 1.19594 27.3333 2.66669 27.3333H29.3334C30.8041 27.3333 32.0001 26.1374 32.0001 24.6667V15.3164C32 15.0631 31.8568 14.832 31.6302 14.7193Z" fill="#D7DAE3"/>
</svg>
