<svg width="238" height="238" viewBox="0 0 238 238" fill="none" xmlns="http://www.w3.org/2000/svg">
<path opacity="0.2" d="M175.735 209.838C179.217 215.412 177.542 222.813 171.648 225.72C160.362 231.288 148.242 235.041 135.734 236.818C123.225 238.594 110.539 238.364 98.1498 236.159C91.6793 235.008 88.01 228.366 89.8017 222.043C91.5935 215.72 98.1707 212.126 104.668 213.115C113.83 214.51 123.169 214.563 132.387 213.254C141.605 211.945 150.559 209.294 158.971 205.402C164.936 202.643 172.254 204.264 175.735 209.838Z" fill="#5E5CE6"/>
<path d="M85.9043 220.858C83.8734 227.109 77.1284 230.584 71.1119 227.939C58.141 222.237 46.2623 214.251 36.0567 204.331C22.9996 191.639 13.0293 176.121 6.91327 158.97C0.797275 141.818 -1.30122 123.493 0.779367 105.403C2.85995 87.3132 9.06411 69.9422 18.9142 54.6274C28.7642 39.3127 41.9974 26.4626 57.5949 17.0666C73.1924 7.67064 90.7381 1.97936 108.881 0.431002C127.024 -1.11736 145.28 1.51849 162.244 8.1356C175.504 13.3077 187.697 20.8042 198.265 30.2419C203.167 34.6196 202.803 42.1985 197.957 46.6389C193.112 51.0793 185.627 50.6843 180.618 46.4306C172.588 39.6126 163.46 34.1564 153.596 30.3085C140.024 25.0148 125.419 22.9061 110.905 24.1448C96.3905 25.3835 82.3539 29.9365 69.8759 37.4533C57.3979 44.9701 46.8114 55.2501 38.9313 67.502C31.0513 79.7538 26.088 93.6505 24.4235 108.122C22.759 122.594 24.4378 137.255 29.3306 150.976C34.2234 164.697 42.1997 177.112 52.6453 187.265C60.2382 194.645 68.9886 200.688 78.5229 205.166C84.4714 207.961 87.9352 214.608 85.9043 220.858Z" fill="#5E5CE6"/>
<path opacity="0.5" d="M200.046 48.9855C205.019 44.6891 212.589 45.2075 216.367 50.585C223.721 61.0501 229.354 72.6542 233.027 84.9595C237.838 101.074 239.179 118.026 236.96 134.697C234.742 151.367 229.015 167.378 220.158 181.674C213.394 192.591 204.922 202.318 195.088 210.496C190.035 214.698 182.593 213.219 178.916 207.772C175.24 202.324 176.735 194.98 181.681 190.653C188.781 184.442 194.935 177.196 199.926 169.14C207.012 157.703 211.594 144.894 213.368 131.557C215.143 118.221 214.071 104.66 210.222 91.7676C207.511 82.6868 203.466 74.0834 198.238 66.2322C194.595 60.762 195.072 53.282 200.046 48.9855Z" fill="#5E5CE6"/>
<path d="M74.4004 122.88C74.4004 123.98 74.1104 125 73.5304 125.94C72.9704 126.86 72.1304 127.62 71.0104 128.22C69.9104 128.8 68.6004 129.12 67.0804 129.18V131.61H65.1604V129.15C63.0404 128.97 61.3304 128.34 60.0304 127.26C58.7304 126.16 58.0404 124.67 57.9604 122.79H63.4204C63.5404 123.99 64.1204 124.76 65.1604 125.1V120.36C63.6004 119.96 62.3504 119.57 61.4104 119.19C60.4904 118.81 59.6804 118.2 58.9804 117.36C58.2804 116.52 57.9304 115.37 57.9304 113.91C57.9304 112.09 58.6004 110.63 59.9404 109.53C61.3004 108.43 63.0404 107.81 65.1604 107.67V105.24H67.0804V107.67C69.1804 107.83 70.8404 108.44 72.0604 109.5C73.2804 110.56 73.9604 112.03 74.1004 113.91H68.6104C68.4904 112.83 67.9804 112.13 67.0804 111.81V116.46C68.7404 116.92 70.0204 117.33 70.9204 117.69C71.8204 118.05 72.6204 118.65 73.3204 119.49C74.0404 120.31 74.4004 121.44 74.4004 122.88ZM63.3604 113.67C63.3604 114.17 63.5104 114.59 63.8104 114.93C64.1304 115.27 64.5804 115.57 65.1604 115.83V111.66C64.6004 111.76 64.1604 111.98 63.8404 112.32C63.5204 112.64 63.3604 113.09 63.3604 113.67ZM67.0804 125.19C67.6804 125.09 68.1504 124.85 68.4904 124.47C68.8504 124.09 69.0304 123.62 69.0304 123.06C69.0304 122.54 68.8604 122.12 68.5204 121.8C68.2004 121.46 67.7204 121.17 67.0804 120.93V125.19ZM77.5264 124.89C78.2064 124.35 78.5164 124.1 78.4564 124.14C80.4164 122.52 81.9564 121.19 83.0764 120.15C84.2164 119.11 85.1764 118.02 85.9564 116.88C86.7364 115.74 87.1264 114.63 87.1264 113.55C87.1264 112.73 86.9364 112.09 86.5564 111.63C86.1764 111.17 85.6064 110.94 84.8464 110.94C84.0864 110.94 83.4864 111.23 83.0464 111.81C82.6264 112.37 82.4164 113.17 82.4164 114.21H77.4664C77.5064 112.51 77.8664 111.09 78.5464 109.95C79.2464 108.81 80.1564 107.97 81.2764 107.43C82.4164 106.89 83.6764 106.62 85.0564 106.62C87.4364 106.62 89.2264 107.23 90.4264 108.45C91.6464 109.67 92.2564 111.26 92.2564 113.22C92.2564 115.36 91.5264 117.35 90.0664 119.19C88.6064 121.01 86.7464 122.79 84.4864 124.53H92.5864V128.7H77.5264V124.89ZM94.8451 117.75C94.8451 114.31 95.5051 111.6 96.8251 109.62C98.1651 107.64 100.315 106.65 103.275 106.65C106.235 106.65 108.375 107.64 109.695 109.62C111.035 111.6 111.705 114.31 111.705 117.75C111.705 121.23 111.035 123.96 109.695 125.94C108.375 127.92 106.235 128.91 103.275 128.91C100.315 128.91 98.1651 127.92 96.8251 125.94C95.5051 123.96 94.8451 121.23 94.8451 117.75ZM106.665 117.75C106.665 115.73 106.445 114.18 106.005 113.1C105.565 112 104.655 111.45 103.275 111.45C101.895 111.45 100.985 112 100.545 113.1C100.105 114.18 99.8851 115.73 99.8851 117.75C99.8851 119.11 99.9651 120.24 100.125 121.14C100.285 122.02 100.605 122.74 101.085 123.3C101.585 123.84 102.315 124.11 103.275 124.11C104.235 124.11 104.955 123.84 105.435 123.3C105.935 122.74 106.265 122.02 106.425 121.14C106.585 120.24 106.665 119.11 106.665 117.75ZM120.445 124.26L117.115 132.87H113.845L115.585 124.26H120.445ZM123.029 117.75C123.029 114.31 123.689 111.6 125.009 109.62C126.349 107.64 128.499 106.65 131.459 106.65C134.419 106.65 136.559 107.64 137.879 109.62C139.219 111.6 139.889 114.31 139.889 117.75C139.889 121.23 139.219 123.96 137.879 125.94C136.559 127.92 134.419 128.91 131.459 128.91C128.499 128.91 126.349 127.92 125.009 125.94C123.689 123.96 123.029 121.23 123.029 117.75ZM134.849 117.75C134.849 115.73 134.629 114.18 134.189 113.1C133.749 112 132.839 111.45 131.459 111.45C130.079 111.45 129.169 112 128.729 113.1C128.289 114.18 128.069 115.73 128.069 117.75C128.069 119.11 128.149 120.24 128.309 121.14C128.469 122.02 128.789 122.74 129.269 123.3C129.769 123.84 130.499 124.11 131.459 124.11C132.419 124.11 133.139 123.84 133.619 123.3C134.119 122.74 134.449 122.02 134.609 121.14C134.769 120.24 134.849 119.11 134.849 117.75ZM142.599 117.75C142.599 114.31 143.259 111.6 144.579 109.62C145.919 107.64 148.069 106.65 151.029 106.65C153.989 106.65 156.129 107.64 157.449 109.62C158.789 111.6 159.459 114.31 159.459 117.75C159.459 121.23 158.789 123.96 157.449 125.94C156.129 127.92 153.989 128.91 151.029 128.91C148.069 128.91 145.919 127.92 144.579 125.94C143.259 123.96 142.599 121.23 142.599 117.75ZM154.419 117.75C154.419 115.73 154.199 114.18 153.759 113.1C153.319 112 152.409 111.45 151.029 111.45C149.649 111.45 148.739 112 148.299 113.1C147.859 114.18 147.639 115.73 147.639 117.75C147.639 119.11 147.719 120.24 147.879 121.14C148.039 122.02 148.359 122.74 148.839 123.3C149.339 123.84 150.069 124.11 151.029 124.11C151.989 124.11 152.709 123.84 153.189 123.3C153.689 122.74 154.019 122.02 154.179 121.14C154.339 120.24 154.419 119.11 154.419 117.75ZM162.169 117.75C162.169 114.31 162.829 111.6 164.149 109.62C165.489 107.64 167.639 106.65 170.599 106.65C173.559 106.65 175.699 107.64 177.019 109.62C178.359 111.6 179.029 114.31 179.029 117.75C179.029 121.23 178.359 123.96 177.019 125.94C175.699 127.92 173.559 128.91 170.599 128.91C167.639 128.91 165.489 127.92 164.149 125.94C162.829 123.96 162.169 121.23 162.169 117.75ZM173.989 117.75C173.989 115.73 173.769 114.18 173.329 113.1C172.889 112 171.979 111.45 170.599 111.45C169.219 111.45 168.309 112 167.869 113.1C167.429 114.18 167.209 115.73 167.209 117.75C167.209 119.11 167.289 120.24 167.449 121.14C167.609 122.02 167.929 122.74 168.409 123.3C168.909 123.84 169.639 124.11 170.599 124.11C171.559 124.11 172.279 123.84 172.759 123.3C173.259 122.74 173.589 122.02 173.749 121.14C173.909 120.24 173.989 119.11 173.989 117.75Z" fill="white"/>
<path d="M88.9297 164H87.4737L81.6177 155.12V164H80.1617V152.832H81.6177L87.4737 161.696V152.832H88.9297V164ZM99.4117 159.28C99.4117 159.557 99.3957 159.851 99.3637 160.16H92.3557C92.409 161.024 92.7024 161.701 93.2357 162.192C93.7797 162.672 94.4357 162.912 95.2037 162.912C95.833 162.912 96.3557 162.768 96.7717 162.48C97.1984 162.181 97.497 161.787 97.6677 161.296H99.2357C99.001 162.139 98.5317 162.827 97.8277 163.36C97.1237 163.883 96.249 164.144 95.2037 164.144C94.3717 164.144 93.625 163.957 92.9637 163.584C92.313 163.211 91.801 162.683 91.4277 162C91.0544 161.307 90.8677 160.507 90.8677 159.6C90.8677 158.693 91.049 157.899 91.4117 157.216C91.7744 156.533 92.281 156.011 92.9317 155.648C93.593 155.275 94.3504 155.088 95.2037 155.088C96.0357 155.088 96.7717 155.269 97.4117 155.632C98.0517 155.995 98.5424 156.496 98.8837 157.136C99.2357 157.765 99.4117 158.48 99.4117 159.28ZM97.9077 158.976C97.9077 158.421 97.785 157.947 97.5397 157.552C97.2944 157.147 96.9584 156.843 96.5317 156.64C96.1157 156.427 95.6517 156.32 95.1397 156.32C94.4037 156.32 93.7744 156.555 93.2517 157.024C92.7397 157.493 92.4464 158.144 92.3717 158.976H97.9077ZM103.11 156.432V161.6C103.11 162.027 103.2 162.331 103.382 162.512C103.563 162.683 103.878 162.768 104.326 162.768H105.398V164H104.086C103.275 164 102.667 163.813 102.262 163.44C101.856 163.067 101.654 162.453 101.654 161.6V156.432H100.518V155.232H101.654V153.024H103.11V155.232H105.398V156.432H103.11ZM125.443 152.848L122.211 164H120.579L117.987 155.024L115.299 164L113.683 164.016L110.563 152.848H112.115L114.547 162.304L117.235 152.848H118.867L121.427 162.272L123.875 152.848H125.443ZM130.861 164.144C130.039 164.144 129.293 163.957 128.621 163.584C127.959 163.211 127.437 162.683 127.053 162C126.679 161.307 126.493 160.507 126.493 159.6C126.493 158.704 126.685 157.915 127.069 157.232C127.463 156.539 127.997 156.011 128.669 155.648C129.341 155.275 130.093 155.088 130.925 155.088C131.757 155.088 132.509 155.275 133.181 155.648C133.853 156.011 134.381 156.533 134.765 157.216C135.159 157.899 135.357 158.693 135.357 159.6C135.357 160.507 135.154 161.307 134.749 162C134.354 162.683 133.815 163.211 133.133 163.584C132.45 163.957 131.693 164.144 130.861 164.144ZM130.861 162.864C131.383 162.864 131.874 162.741 132.333 162.496C132.791 162.251 133.159 161.883 133.437 161.392C133.725 160.901 133.869 160.304 133.869 159.6C133.869 158.896 133.73 158.299 133.453 157.808C133.175 157.317 132.813 156.955 132.365 156.72C131.917 156.475 131.431 156.352 130.909 156.352C130.375 156.352 129.885 156.475 129.437 156.72C128.999 156.955 128.647 157.317 128.381 157.808C128.114 158.299 127.981 158.896 127.981 159.6C127.981 160.315 128.109 160.917 128.365 161.408C128.631 161.899 128.983 162.267 129.421 162.512C129.858 162.747 130.338 162.864 130.861 162.864ZM138.727 156.656C138.983 156.155 139.346 155.765 139.815 155.488C140.295 155.211 140.876 155.072 141.559 155.072V156.576H141.175C139.543 156.576 138.727 157.461 138.727 159.232V164H137.271V155.232H138.727V156.656ZM145.016 156.432V161.6C145.016 162.027 145.106 162.331 145.288 162.512C145.469 162.683 145.784 162.768 146.232 162.768H147.304V164H145.992C145.181 164 144.573 163.813 144.168 163.44C143.762 163.067 143.56 162.453 143.56 161.6V156.432H142.424V155.232H143.56V153.024H145.016V155.232H147.304V156.432H145.016ZM153.42 155.072C154.081 155.072 154.679 155.216 155.212 155.504C155.745 155.781 156.161 156.203 156.46 156.768C156.769 157.333 156.924 158.021 156.924 158.832V164H155.484V159.04C155.484 158.165 155.265 157.499 154.828 157.04C154.391 156.571 153.793 156.336 153.036 156.336C152.268 156.336 151.655 156.576 151.196 157.056C150.748 157.536 150.524 158.235 150.524 159.152V164H149.068V152.16H150.524V156.48C150.812 156.032 151.207 155.685 151.708 155.44C152.22 155.195 152.791 155.072 153.42 155.072Z" fill="#90A0C1"/>
</svg>
