<svg width="16" height="20" viewBox="0 0 16 20" fill="none" xmlns="http://www.w3.org/2000/svg">
<path d="M1.86328 0.0898438C1.17969 0.324219 0.667969 0.839844 0.460938 1.51953C0.382812 1.76172 0.382812 1.92578 0.382812 10C0.382812 18.0742 0.382812 18.2383 0.460938 18.4805C0.667969 19.1602 1.17969 19.6758 1.86328 19.9102L2.12109 19.9961H8H13.8789L14.1367 19.9102C14.8203 19.6758 15.332 19.1602 15.5391 18.4805C15.6172 18.2383 15.6172 18.082 15.6172 11.6562V5.08203L13.3047 5.07031C11 5.05859 10.9883 5.05859 10.8516 4.97266C10.7773 4.92578 10.6797 4.82812 10.6367 4.75781C10.5625 4.63281 10.5586 4.55078 10.5469 2.3125L10.5352 0H6.32812L2.12109 0.00390625L1.86328 0.0898438ZM9.83594 6.42969C9.92969 6.48438 10.0234 6.59766 10.1328 6.80078C10.5078 7.48438 10.9883 7.80859 11.7461 7.89453C12.1172 7.9375 12.2656 8.00781 12.3867 8.20312C12.4727 8.33984 12.4727 8.35156 12.4727 10.3125C12.4727 12.4219 12.4609 12.6094 12.2695 13.3398C11.7617 15.2891 10.2539 16.918 8.375 17.5391C8.02734 17.6523 7.85547 17.6328 7.31641 17.418C5.5625 16.7188 4.20703 15.1758 3.73047 13.3398C3.53906 12.6055 3.52734 12.418 3.52734 10.3125C3.52734 8.51562 3.53516 8.32812 3.59375 8.21484C3.69922 8.02344 3.87891 7.9375 4.25391 7.89453C5.00391 7.80859 5.51953 7.45703 5.86719 6.80078C6.01953 6.51172 6.11719 6.41797 6.33203 6.36328C6.39844 6.34766 7.1875 6.33594 8.07812 6.33984C9.63672 6.34766 9.70312 6.35156 9.83594 6.42969Z" fill="#FF2E63"/>
<path d="M6.62891 7.70312C6.26953 8.26172 5.53125 8.77734 4.84766 8.94531L4.67969 8.98828V10.6836C4.67969 12.1914 4.6875 12.4219 4.75391 12.7617C4.93359 13.6953 5.33594 14.4922 5.97266 15.1719C6.46094 15.6914 7.01562 16.0781 7.67188 16.3516L8 16.4844L8.32422 16.3516C9.62891 15.8125 10.6367 14.7344 11.0859 13.3984C11.2969 12.7695 11.3203 12.5117 11.3203 10.6836V8.98828L11.1562 8.94531C10.4531 8.76562 9.73047 8.26172 9.37109 7.70312L9.23828 7.5H8H6.76172L6.62891 7.70312ZM9.82422 10.3555C10.0898 10.4531 10.2578 10.7422 10.207 11.0078C10.1836 11.1328 10.0078 11.3242 9.00391 12.3398C7.74219 13.6055 7.62109 13.7031 7.33984 13.6523C7.22266 13.6328 7.08203 13.5117 6.52734 12.957C5.82031 12.2578 5.74219 12.1445 5.78906 11.8945C5.83984 11.6211 6.07422 11.4453 6.38281 11.4453C6.5625 11.4453 6.57031 11.4492 7 11.875L7.4375 12.3047L8.35156 11.3828C9.39453 10.332 9.52734 10.2422 9.82422 10.3555Z" fill="#FF2E63"/>
<path d="M11.7109 2.10938V3.90625H13.5156H15.3242L13.5273 2.10938C12.5391 1.12109 11.7266 0.3125 11.7227 0.3125C11.7148 0.3125 11.7109 1.12109 11.7109 2.10938Z" fill="#FF2E63"/>
</svg>
