<svg width="30" height="30" viewBox="0 0 30 30" fill="none" xmlns="http://www.w3.org/2000/svg">
<path d="M23.2343 14.9999C23.2343 13.3682 22.7504 11.7731 21.8439 10.4164C20.9374 9.05972 19.6489 8.0023 18.1414 7.37788C16.6339 6.75345 14.9751 6.59008 13.3748 6.9084C11.7744 7.22673 10.3044 8.01247 9.15062 9.16625C7.99684 10.32 7.21111 11.79 6.89278 13.3904C6.57445 14.9907 6.73783 16.6495 7.36225 18.157C7.98667 19.6645 9.0441 20.953 10.4008 21.8595C11.7575 22.766 13.3526 23.2499 14.9843 23.2499C17.1715 23.2473 19.2684 22.3773 20.815 20.8307C22.3617 19.284 23.2317 17.1871 23.2343 14.9999ZM14.2343 19.4999V18.6749C12.9285 18.4296 11.9843 17.5671 11.9843 16.4999C11.9843 16.301 12.0633 16.1102 12.2039 15.9696C12.3446 15.8289 12.5353 15.7499 12.7343 15.7499C12.9332 15.7499 13.1239 15.8289 13.2646 15.9696C13.4052 16.1102 13.4843 16.301 13.4843 16.4999C13.4843 16.8059 14.0685 17.2499 14.9843 17.2499C15.9 17.2499 16.4843 16.8059 16.4843 16.4999C16.4843 16.1939 15.9 15.7499 14.9843 15.7499C13.302 15.7499 11.9843 14.7614 11.9843 13.4999C11.9843 12.4341 12.9285 11.5716 14.2343 11.3249V10.4999C14.2343 10.301 14.3133 10.1102 14.4539 9.96955C14.5946 9.8289 14.7853 9.74988 14.9843 9.74988C15.1832 9.74988 15.3739 9.8289 15.5146 9.96955C15.6552 10.1102 15.7343 10.301 15.7343 10.4999V11.3249C17.04 11.5701 17.9843 12.4326 17.9843 13.4999C17.9843 13.6988 17.9052 13.8896 17.7646 14.0302C17.6239 14.1709 17.4332 14.2499 17.2343 14.2499C17.0353 14.2499 16.8446 14.1709 16.7039 14.0302C16.5633 13.8896 16.4843 13.6988 16.4843 13.4999C16.4843 13.1939 15.9 12.7499 14.9843 12.7499C14.0685 12.7499 13.4843 13.1939 13.4843 13.4999C13.4843 13.8059 14.0685 14.2499 14.9843 14.2499C16.6665 14.2499 17.9843 15.2384 17.9843 16.4999C17.9843 17.5656 17.04 18.4281 15.7343 18.6749V19.4999C15.7343 19.6988 15.6552 19.8896 15.5146 20.0302C15.3739 20.1709 15.1832 20.2499 14.9843 20.2499C14.7853 20.2499 14.5946 20.1709 14.4539 20.0302C14.3133 19.8896 14.2343 19.6988 14.2343 19.4999Z" fill="#D7DAE3"/>
<path d="M14.9618 30C15.5867 29.8719 16.1612 29.5658 16.6162 29.1188C17.1561 28.6454 17.7834 28.2823 18.4627 28.05C19.1872 27.909 19.9322 27.9113 20.6558 28.0568C21.2524 28.2118 21.8806 28.1956 22.4685 28.0103C22.9328 27.5915 23.2686 27.0495 23.4368 26.4473C23.6413 25.9001 23.9129 25.3804 24.2453 24.9C24.2542 24.8873 24.4298 24.6607 24.5212 24.57C25.0732 24.0924 25.7132 23.7273 26.4053 23.4953C27.0086 23.3308 27.5524 22.9975 27.9728 22.5345C28.1625 21.948 28.1823 21.3198 28.0298 20.7225C27.8892 19.9981 27.8905 19.2534 28.0335 18.5295C28.2691 17.8521 28.635 17.2274 29.1105 16.6905C29.5605 16.2383 29.8696 15.665 30 15.0405C29.8734 14.4148 29.5674 13.8394 29.1195 13.3845C28.6469 12.8448 28.2846 12.2177 28.053 11.5387C27.9127 10.814 27.915 10.0689 28.0597 9.345C28.215 8.74911 28.1986 8.12148 28.0125 7.5345C27.5941 7.06957 27.052 6.73345 26.4495 6.5655C25.7584 6.32982 25.1202 5.96114 24.5708 5.48025C24.0931 4.92829 23.7281 4.28829 23.496 3.59625C23.3324 2.99151 22.999 2.44627 22.5353 2.025C21.949 1.83526 21.321 1.8155 20.724 1.968C19.9996 2.10867 19.2548 2.10714 18.531 1.9635C17.8532 1.72874 17.2281 1.36306 16.6912 0.88725C16.2379 0.437934 15.664 0.129736 15.039 0C14.4141 0.12813 13.8395 0.434162 13.3845 0.88125C12.8445 1.35444 12.2173 1.7175 11.538 1.95C10.8133 2.09062 10.0681 2.08833 9.34425 1.94325C8.74818 1.7878 8.12031 1.80392 7.533 1.98975C7.06854 2.4082 6.7325 2.94998 6.564 3.552C6.3285 4.24338 5.9598 4.88191 5.47875 5.4315C4.92675 5.90923 4.28678 6.27456 3.59475 6.507C2.99136 6.6713 2.4475 7.00464 2.02725 7.46775C1.83784 8.05353 1.81808 8.68096 1.97025 9.2775C2.11129 10.0024 2.10976 10.7477 1.96575 11.472C1.73084 12.1498 1.36518 12.7748 0.8895 13.3118C0.439742 13.7642 0.130775 14.3373 0 14.9618C0.128213 15.5877 0.435395 16.163 0.88425 16.6178C1.35638 17.1572 1.71866 17.7837 1.95075 18.462C2.09057 19.1868 2.08827 19.9318 1.944 20.6558C1.78877 21.2521 1.80515 21.8803 1.99125 22.4678C2.40932 22.9325 2.95126 23.2684 3.5535 23.436C4.24381 23.6732 4.88103 24.0431 5.42925 24.525C5.52 24.6165 5.694 24.8438 5.703 24.8557C6.03371 25.3381 6.3028 25.8599 6.504 26.409C6.66855 27.0125 7.00215 27.5563 7.4655 27.9765C8.05174 28.1662 8.67974 28.186 9.27675 28.0335C9.69608 27.9712 10.1189 27.9354 10.5427 27.9263C10.8553 27.9224 11.167 27.96 11.4697 28.038C12.1475 28.2729 12.7726 28.6386 13.3095 29.1143C13.763 29.563 14.337 29.8707 14.9618 30ZM5.23425 15C5.23425 13.0716 5.80608 11.1866 6.87742 9.58319C7.94877 7.97981 9.47151 6.73013 11.2531 5.99217C13.0347 5.25422 14.9951 5.06114 16.8864 5.43734C18.7777 5.81355 20.515 6.74215 21.8785 8.10571C23.2421 9.46927 24.1707 11.2066 24.5469 13.0979C24.9231 14.9892 24.73 16.9496 23.9921 18.7312C23.2541 20.5127 22.0044 22.0355 20.4011 23.1068C18.7977 24.1782 16.9126 24.75 14.9843 24.75C12.3993 24.747 9.92108 23.7188 8.09325 21.891C6.26541 20.0632 5.23723 17.5849 5.23425 15Z" fill="#D7DAE3"/>
</svg>
