<svg width="30" height="30" viewBox="0 0 30 30" fill="none" xmlns="http://www.w3.org/2000/svg">
<path d="M14.1211 8.84766V10.7674C13.1003 11.1314 12.3633 12.0979 12.3633 13.2422C12.3633 14.6961 13.5461 15.8789 15 15.8789C15.4849 15.8789 15.8789 16.2729 15.8789 16.7578C15.8789 17.2427 15.4849 17.6367 15 17.6367C14.5151 17.6367 14.1211 17.2427 14.1211 16.7578H12.3633C12.3633 17.9021 13.1003 18.8686 14.1211 19.2326V21.1523H15.8789V19.2326C16.8997 18.8686 17.6367 17.9021 17.6367 16.7578C17.6367 15.3039 16.4539 14.1211 15 14.1211C14.5151 14.1211 14.1211 13.7271 14.1211 13.2422C14.1211 12.7573 14.5151 12.3633 15 12.3633C15.4849 12.3633 15.8789 12.7573 15.8789 13.2422H17.6367C17.6367 12.0979 16.8997 11.1314 15.8789 10.7674V8.84766H14.1211Z" fill="#D7DAE3"/>
<path d="M15.8789 0V7.17867C19.5311 7.58959 22.4152 10.4737 22.827 14.1211H30C29.5596 6.57434 23.4268 0.440332 15.8789 0Z" fill="#D7DAE3"/>
<path d="M8.84725 19.9099C7.76478 18.5564 7.08984 16.8639 7.08984 15C7.08984 10.939 10.1769 7.6224 14.1211 7.17867V0C6.28078 0.457383 0 7.0449 0 15C0 18.8095 1.49613 22.2749 3.84311 24.914L8.84725 19.9099Z" fill="#D7DAE3"/>
<path d="M29.9984 15.8789H22.8213C22.3775 19.8231 19.0609 22.9102 14.9999 22.9102C13.136 22.9102 11.4435 22.2352 10.0901 21.1528L5.08594 26.1569C7.72506 28.5039 11.1905 30 14.9999 30C22.955 30 29.541 23.7192 29.9984 15.8789Z" fill="#D7DAE3"/>
</svg>
