<svg width="24" height="24" viewBox="0 0 24 24" fill="none" xmlns="http://www.w3.org/2000/svg">
<path d="M7.72564 2.58014C5.81945 2.9943 4.33804 4.56067 4.03538 6.4881C3.9929 6.76421 3.98229 8.38899 3.9929 12.1589L4.00883 17.4421L4.15751 17.7607C4.23715 17.9359 4.40706 18.1854 4.52919 18.3076C4.74158 18.5306 5.27255 18.9235 5.44246 18.9872C5.51149 19.0191 5.52211 18.366 5.52211 13.0031C5.52211 6.36067 5.51149 6.58899 5.86193 5.86686C6.18582 5.19253 6.67432 4.69872 7.36458 4.3589C8.02299 4.02969 7.91679 4.035 12.9451 4.035C15.4619 4.035 17.5221 4.02438 17.5221 4.00845C17.5221 3.99253 17.4053 3.80668 17.2619 3.5943C16.9539 3.13235 16.5982 2.79783 16.2584 2.63854C16.0088 2.52173 16.0088 2.52173 12.0531 2.51111C8.70263 2.5058 8.03892 2.51642 7.72564 2.58014Z" fill="#FF2E63"/>
<path d="M8.5009 5.07597C8.05488 5.19809 7.70444 5.41048 7.29559 5.81402C6.87612 6.22818 6.63187 6.66889 6.53099 7.19455C6.48851 7.42287 6.47789 9.17508 6.48851 13.4335L6.50444 19.3538L6.62125 19.6724C6.8655 20.3043 7.35931 20.8884 7.90621 21.1804C8.54869 21.5149 8.34161 21.5043 13.2478 21.5043C18.1699 21.5043 17.9469 21.5202 18.6 21.1698C18.9929 20.9627 19.4761 20.4795 19.6885 20.076C20.0283 19.4494 20.0177 19.6671 20.0177 13.2636C20.0177 9.26004 20.0018 7.34853 19.9593 7.15738C19.7575 6.18039 18.9398 5.32552 17.9735 5.07066C17.5168 4.95384 8.94161 4.95915 8.5009 5.07597ZM16.1044 9.62641C16.5664 9.92906 16.5664 10.5662 16.1044 10.8689C15.9717 10.9592 15.7752 10.9645 13.2478 10.9645C10.2319 10.9645 10.3699 10.9804 10.1416 10.6034C9.89205 10.1945 10.1469 9.63703 10.6195 9.54145C10.6938 9.52552 11.9257 9.52021 13.354 9.52552C15.7699 9.53083 15.9717 9.53614 16.1044 9.62641ZM16.0832 12.6264C16.2956 12.7379 16.4602 13.014 16.4602 13.2476C16.4602 13.4813 16.2956 13.7574 16.0832 13.8689C15.9186 13.9592 15.7168 13.9645 13.2478 13.9645C10.2797 13.9645 10.3381 13.9698 10.131 13.5875C9.93453 13.237 10.1151 12.7379 10.4867 12.5839C10.5451 12.5574 11.7876 12.5361 13.2478 12.5361C15.7221 12.5308 15.9186 12.5361 16.0832 12.6264ZM16.1044 15.6264C16.5664 15.9291 16.5664 16.5662 16.1044 16.8689C15.9717 16.9592 15.7752 16.9645 13.2478 16.9645C10.2319 16.9645 10.3699 16.9804 10.1416 16.6034C9.89205 16.1945 10.1469 15.637 10.6195 15.5415C10.6938 15.5255 11.9257 15.5202 13.354 15.5255C15.7699 15.5308 15.9717 15.5361 16.1044 15.6264Z" fill="#FF2E63"/>
</svg>
