<svg width="31" height="31" viewBox="0 0 31 31" fill="none" xmlns="http://www.w3.org/2000/svg">
<path d="M9.54907 13.2857C9.54907 13.5914 9.79694 13.8393 10.1026 13.8393V12.7321C9.79694 12.7321 9.54907 12.98 9.54907 13.2857Z" fill="#FD9101"/>
<path d="M10.6895 9.96426H10.6562C8.21029 9.95534 6.22035 11.931 6.2117 14.3769C6.20278 16.8225 8.17839 18.8125 10.6241 18.8214C11.7966 18.8203 12.9227 18.3638 13.7652 17.5483C15.0415 16.2911 15.4351 14.3888 14.7618 12.7283C14.0885 11.0682 12.481 9.97697 10.6895 9.96426ZM7.88836 14.9464H6.78122V13.8393H7.88836V14.9464ZM12.8705 15.5C12.8705 16.4171 12.1269 17.1607 11.2098 17.1607V17.7143H10.1026V17.1607C9.18552 17.1607 8.44193 16.4171 8.44193 15.5H9.54908C9.54908 15.8057 9.79694 16.0535 10.1026 16.0535V14.9464C9.18552 14.9464 8.44193 14.2028 8.44193 13.2857C8.44193 12.3686 9.18552 11.625 10.1026 11.625V11.0714H11.2098V11.625C12.1269 11.625 12.8705 12.3686 12.8705 13.2857H11.7634C11.7634 12.98 11.5155 12.7321 11.2098 12.7321V13.8393C12.1269 13.8393 12.8705 14.5829 12.8705 15.5ZM14.5312 14.9464H13.4241V13.8393H14.5312V14.9464Z" fill="#FD9101"/>
<path d="M11.2098 16.0536C11.5155 16.0536 11.7634 15.8057 11.7634 15.5C11.7634 15.1943 11.5155 14.9464 11.2098 14.9464V16.0536Z" fill="#FD9101"/>
<path d="M1.24548 29.3393C1.26846 30.2467 1.99881 30.977 2.9062 31H18.4062C19.3136 30.977 20.0439 30.2467 20.0669 29.3393V28.2321H1.24548V29.3393Z" fill="#FD9101"/>
<path d="M8.3865 2.52053L8.78411 3.32143H12.5283L12.9286 2.52053C13.0224 2.33268 13.2143 2.21429 13.4241 2.21429H20.0669V1.66071C20.0439 0.753322 19.3136 0.0229754 18.4062 0H2.9062C1.99881 0.0229754 1.26846 0.753322 1.24548 1.66071V2.21429H7.88834C8.09917 2.2132 8.29244 2.33187 8.3865 2.52053ZM4.56691 1.66071H3.45977V0.553571H4.56691V1.66071Z" fill="#FD9101"/>
<path d="M17.8526 16.0536V12.7321C17.8526 12.4264 18.1005 12.1786 18.4062 12.1786H20.0669V3.32141H13.7663L13.3686 4.12231C13.2746 4.31097 13.0813 4.42964 12.8705 4.42855H8.44191C8.23216 4.42855 8.04025 4.31016 7.94645 4.12231L7.54614 3.32141H1.24548V27.125H20.0669V16.6071H18.4062C18.1005 16.6071 17.8526 16.3593 17.8526 16.0536ZM17.2991 3.87498H18.9598C19.2655 3.87498 19.5133 4.12285 19.5133 4.42855V6.08927H18.4062V4.98213H17.2991V3.87498ZM4.01334 26.5714H2.35263C2.04692 26.5714 1.79905 26.3235 1.79905 26.0178V24.3571H2.9062V25.4643H4.01334V26.5714ZM4.01334 4.98213H2.9062V6.08927H1.79905V4.42855C1.79905 4.12285 2.04692 3.87498 2.35263 3.87498H4.01334V4.98213ZM14.5412 18.3365C13.5076 19.3601 12.1107 19.9326 10.6562 19.9286H10.6129C7.5556 19.9167 5.08697 17.4286 5.09886 14.3712C5.11075 11.3139 7.59885 8.84523 10.6562 8.85713H10.6994C12.9383 8.87388 14.9469 10.2375 15.7884 12.3126C16.6295 14.3877 16.1381 16.7653 14.5428 18.3365H14.5412ZM19.5133 26.0178C19.5133 26.3235 19.2655 26.5714 18.9598 26.5714H17.2991V25.4643H18.4062V24.3571H19.5133V26.0178Z" fill="#FD9101"/>
<path d="M29.6991 14.3928L25.6027 11.1163V12.7321C25.6027 13.0378 25.3548 13.2857 25.0491 13.2857H18.9598V15.5H25.0491C25.3548 15.5 25.6027 15.7478 25.6027 16.0535V17.6694L29.6991 14.3928Z" fill="#FD9101"/>
</svg>
